<svg xmlns="http://www.w3.org/2000/svg" viewBox="0 0 1440 320"><path fill="#4d004f" fill-opacity="1" d="M0,192L0,224L36.9,224L36.9,192L73.8,192L73.8,32L110.8,32L110.8,64L147.7,64L147.7,128L184.6,128L184.6,192L221.5,192L221.5,256L258.5,256L258.5,128L295.4,128L295.4,96L332.3,96L332.3,192L369.2,192L369.2,128L406.2,128L406.2,64L443.1,64L443.1,288L480,288L480,256L516.9,256L516.9,320L553.8,320L553.8,192L590.8,192L590.8,128L627.7,128L627.7,224L664.6,224L664.6,224L701.5,224L701.5,64L738.5,64L738.5,0L775.4,0L775.4,96L812.3,96L812.3,192L849.2,192L849.2,224L886.2,224L886.2,32L923.1,32L923.1,256L960,256L960,192L996.9,192L996.9,256L1033.8,256L1033.8,192L1070.8,192L1070.8,224L1107.7,224L1107.7,32L1144.6,32L1144.6,224L1181.5,224L1181.5,128L1218.5,128L1218.5,64L1255.4,64L1255.4,320L1292.3,320L1292.3,0L1329.2,0L1329.2,224L1366.2,224L1366.2,192L1403.1,192L1403.1,160L1440,160L1440,320L1403.1,320L1403.1,320L1366.2,320L1366.2,320L1329.2,320L1329.2,320L1292.3,320L1292.3,320L1255.4,320L1255.4,320L1218.5,320L1218.5,320L1181.5,320L1181.5,320L1144.6,320L1144.6,320L1107.7,320L1107.7,320L1070.8,320L1070.8,320L1033.8,320L1033.8,320L996.9,320L996.9,320L960,320L960,320L923.1,320L923.1,320L886.2,320L886.2,320L849.2,320L849.2,320L812.3,320L812.3,320L775.4,320L775.4,320L738.5,320L738.5,320L701.5,320L701.5,320L664.6,320L664.6,320L627.7,320L627.7,320L590.8,320L590.8,320L553.8,320L553.8,320L516.9,320L516.9,320L480,320L480,320L443.1,320L443.1,320L406.2,320L406.2,320L369.2,320L369.2,320L332.3,320L332.3,320L295.4,320L295.4,320L258.5,320L258.5,320L221.5,320L221.5,320L184.6,320L184.6,320L147.7,320L147.7,320L110.8,320L110.8,320L73.8,320L73.8,320L36.9,320L36.9,320L0,320L0,320Z" style="--darkreader-inline-fill: #3e003f;" data-darkreader-inline-fill=""></path></svg>