<?xml version="1.0" standalone="no"?><svg xmlns="http://www.w3.org/2000/svg" viewBox="0 0 1440 320"><path fill="#0f9595" fill-opacity="1" d="M0,96L0,32L36.9,32L36.9,0L73.8,0L73.8,32L110.8,32L110.8,160L147.7,160L147.7,256L184.6,256L184.6,320L221.5,320L221.5,192L258.5,192L258.5,256L295.4,256L295.4,64L332.3,64L332.3,64L369.2,64L369.2,64L406.2,64L406.2,32L443.1,32L443.1,288L480,288L480,64L516.9,64L516.9,192L553.8,192L553.8,64L590.8,64L590.8,96L627.7,96L627.7,288L664.6,288L664.6,128L701.5,128L701.5,256L738.5,256L738.5,320L775.4,320L775.4,224L812.3,224L812.3,192L849.2,192L849.2,0L886.2,0L886.2,224L923.1,224L923.1,0L960,0L960,224L996.9,224L996.9,160L1033.8,160L1033.8,192L1070.8,192L1070.8,256L1107.7,256L1107.7,192L1144.6,192L1144.6,32L1181.5,32L1181.5,192L1218.5,192L1218.5,288L1255.4,288L1255.4,224L1292.3,224L1292.3,64L1329.2,64L1329.2,128L1366.2,128L1366.2,64L1403.1,64L1403.1,128L1440,128L1440,320L1403.1,320L1403.1,320L1366.2,320L1366.2,320L1329.2,320L1329.2,320L1292.3,320L1292.3,320L1255.4,320L1255.4,320L1218.5,320L1218.5,320L1181.5,320L1181.5,320L1144.6,320L1144.6,320L1107.7,320L1107.7,320L1070.8,320L1070.8,320L1033.8,320L1033.8,320L996.9,320L996.9,320L960,320L960,320L923.1,320L923.1,320L886.2,320L886.2,320L849.2,320L849.2,320L812.3,320L812.3,320L775.4,320L775.4,320L738.5,320L738.5,320L701.5,320L701.5,320L664.6,320L664.6,320L627.7,320L627.7,320L590.8,320L590.8,320L553.8,320L553.8,320L516.9,320L516.9,320L480,320L480,320L443.1,320L443.1,320L406.2,320L406.2,320L369.2,320L369.2,320L332.3,320L332.3,320L295.4,320L295.4,320L258.5,320L258.5,320L221.5,320L221.5,320L184.6,320L184.6,320L147.7,320L147.7,320L110.8,320L110.8,320L73.8,320L73.8,320L36.9,320L36.9,320L0,320L0,320Z" style="--darkreader-inline-fill: #0c7777;" data-darkreader-inline-fill=""></path></svg>