<svg xmlns="http://www.w3.org/2000/svg" x="0px" y="0px" width="100" height="100" viewBox="0 0 100 100">
    <circle cx="77" cy="13" r="1" fill="#f1bc19"></circle><circle cx="50" cy="50" r="37" fill="#e6edb7"></circle><circle cx="83" cy="15" r="4" fill="#f1bc19"></circle><circle cx="87" cy="24" r="2" fill="#88ae45"></circle><circle cx="81" cy="76" r="2" fill="#fbcd59"></circle><circle cx="15" cy="63" r="4" fill="#fbcd59"></circle><circle cx="25" cy="87" r="2" fill="#88ae45"></circle><circle cx="18.5" cy="51.5" r="2.5" fill="#fff"></circle><circle cx="79.5" cy="33.5" r="1.5" fill="#fff"></circle><path fill="#fbb821" d="M50,28.952c-12.992,0-23.524,10.532-23.524,23.524S37.008,76,50,76s23.524-10.532,23.524-23.524 S62.992,28.952,50,28.952z"></path><path fill="#472b29" d="M50,76.7c-13.356,0-24.224-10.867-24.224-24.224S36.644,28.252,50,28.252 s24.224,10.867,24.224,24.224S63.356,76.7,50,76.7z M50,29.652c-12.585,0-22.823,10.239-22.823,22.824S37.415,75.3,50,75.3 s22.823-10.239,22.823-22.824S62.585,29.652,50,29.652z"></path><path fill="#77cbd2" d="M50,33.905c-10.257,0-18.571,8.315-18.571,18.571S39.743,71.048,50,71.048 s18.571-8.315,18.571-18.571c0-9.044-6.464-16.578-15.024-18.233"></path><g><path fill="#0091ea" d="M61.534,53.878c0.222-0.039,0.44-0.077,0.655-0.112c0.008-0.001,0.016-0.003,0.024-0.004 c1.379-0.227,2.61-0.379,3.627-0.482c0-0.001,0-0.002,0-0.002c0.91-0.092,1.648-0.144,2.159-0.173 c-0.015-5.051-1.827-9.643-4.78-13.104c-2.922,0.918-5.248,2.343-6.878,3.565c-0.054,0.04-0.107,0.08-0.159,0.119 c-0.178,0.135-0.348,0.266-0.507,0.395c-0.114,0.091-0.216,0.176-0.32,0.263c-0.095,0.08-0.195,0.161-0.282,0.236 c-0.197,0.169-0.377,0.33-0.532,0.473c-0.712,2.313-2.171,4.801-4.454,7.076c-0.761,0.758-1.614,1.493-2.562,2.189v8.064 c0,0,0.516-1.008,1.627-2.317c2.273-2.678,5.397-4.497,8.811-5.323L61.534,53.878z"></path></g><g><path fill="#0091ea" d="M54.339,65.802c-1.486,0-3.326-0.567-3.842-2.299C48.58,64.521,46.94,65.649,46,66.334V68h14.521 c2.247-1.887,4.063-4.266,5.252-6.994c-0.961-0.36-2.921-0.877-6.281-0.877C60.524,63.409,57.056,65.802,54.339,65.802"></path></g><g><path fill="#0091ea" d="M57.976,38.818c0.368-0.196,0.756-0.39,1.162-0.577c-0.002-0.001-0.004-0.003-0.006-0.004 c0.584-0.269,1.204-0.526,1.868-0.756c-0.83-0.696-1.731-1.308-2.7-1.812c-0.973,0.45-2.19,1.069-3.348,1.818 c0.55,0.688,0.836,1.608,0.861,2.657c0.213-0.15,0.442-0.304,0.684-0.46c0.013-0.009,0.027-0.017,0.041-0.026"></path><path fill="#472b29" d="M55.813,40.27c-0.02,0-0.038-0.004-0.057-0.013c-0.041-0.021-0.067-0.063-0.068-0.109 c-0.024-1.037-0.313-1.93-0.834-2.582c-0.022-0.028-0.031-0.063-0.025-0.098c0.005-0.035,0.025-0.066,0.055-0.085 c0.973-0.629,2.104-1.244,3.363-1.827c0.034-0.017,0.076-0.016,0.11,0.002c0.951,0.494,1.867,1.109,2.723,1.827 c0.035,0.029,0.051,0.074,0.043,0.118c-0.008,0.044-0.04,0.081-0.082,0.096c-0.599,0.207-1.194,0.447-1.818,0.733 c-0.009,0.009-0.02,0.017-0.032,0.022c-0.386,0.177-0.774,0.37-1.155,0.574c-0.062,0.033-0.137,0.009-0.169-0.051 c-0.032-0.061-0.01-0.137,0.052-0.169c0.372-0.199,0.752-0.388,1.13-0.563c0.009-0.009,0.02-0.017,0.032-0.022 c0.573-0.264,1.121-0.489,1.67-0.686c-0.776-0.633-1.601-1.18-2.453-1.628c-1.178,0.548-2.24,1.123-3.163,1.711 c0.466,0.632,0.738,1.453,0.795,2.393c0.16-0.109,0.327-0.221,0.501-0.332l0.044-0.028c0.056-0.035,0.136-0.017,0.171,0.042 c0.036,0.059,0.018,0.136-0.042,0.172l-0.038,0.024c-0.239,0.154-0.468,0.307-0.679,0.457C55.864,40.262,55.839,40.27,55.813,40.27 z"></path></g><g><path fill="#472b29" d="M50,71.548c-10.516,0-19.071-8.556-19.071-19.072S39.484,33.405,50,33.405 c0.276,0,0.5,0.224,0.5,0.5s-0.224,0.5-0.5,0.5c-9.965,0-18.071,8.107-18.071,18.071c0,9.965,8.106,18.072,18.071,18.072 s18.071-8.107,18.071-18.072c0-8.643-6.148-16.104-14.619-17.742c-0.271-0.052-0.448-0.314-0.396-0.585 c0.054-0.272,0.317-0.448,0.586-0.396c8.94,1.729,15.43,9.603,15.43,18.724C69.071,62.992,60.516,71.548,50,71.548z"></path></g><g><path fill="#472b29" d="M47.523,62.506c-0.01,0-0.02-0.001-0.029-0.003c-0.057-0.014-0.096-0.064-0.096-0.122v-8.063 c0-0.04,0.019-0.077,0.051-0.101c0.915-0.672,1.772-1.404,2.549-2.177c2.133-2.125,3.662-4.553,4.423-7.024 c0.006-0.021,0.019-0.04,0.034-0.055c0.156-0.145,0.338-0.306,0.535-0.476c0.063-0.054,0.133-0.111,0.202-0.168l0.083-0.069 c0.104-0.087,0.207-0.173,0.322-0.265c0.159-0.129,0.33-0.261,0.509-0.397l0.16-0.12c2.151-1.613,4.479-2.819,6.916-3.584 c0.045-0.015,0.101,0,0.132,0.038c3.088,3.619,4.796,8.302,4.811,13.185c0,0.066-0.052,0.122-0.118,0.125 c-0.66,0.037-1.396,0.096-2.132,0.17c-0.007,0.002-0.015,0.003-0.021,0.004c-1.2,0.122-2.418,0.284-3.619,0.481 c-0.219,0.036-0.414,0.069-0.614,0.104c-0.069,0.014-0.133-0.034-0.145-0.102s0.033-0.133,0.102-0.145 c0.2-0.035,0.397-0.068,0.592-0.101c1.224-0.201,2.439-0.363,3.638-0.485c0.007-0.002,0.015-0.003,0.021-0.004 c0.713-0.072,1.4-0.128,2.046-0.167c-0.04-4.753-1.705-9.306-4.695-12.842c-2.382,0.759-4.656,1.943-6.762,3.521l-0.159,0.119 c-0.176,0.134-0.345,0.264-0.503,0.393c-0.114,0.091-0.217,0.175-0.319,0.262l-0.084,0.07c-0.068,0.056-0.136,0.112-0.197,0.165 c-0.186,0.16-0.356,0.311-0.505,0.447c-0.775,2.5-2.323,4.952-4.476,7.096c-0.771,0.768-1.62,1.495-2.525,2.164v7.53 c0.253-0.416,0.714-1.111,1.407-1.928c1.956-2.304,4.584-4.035,7.603-5.005c0.066-0.019,0.136,0.015,0.157,0.081 c0.021,0.065-0.016,0.136-0.081,0.157c-2.974,0.957-5.563,2.661-7.487,4.929c-1.088,1.281-1.607,2.283-1.612,2.293 C47.613,62.48,47.569,62.506,47.523,62.506z"></path></g><g><path fill="#472b29" d="M57.963,54.866c-0.057,0-0.107-0.039-0.121-0.096c-0.017-0.067,0.024-0.135,0.092-0.151l1.08-0.261 c0.066-0.016,0.135,0.026,0.15,0.092c0.017,0.067-0.024,0.135-0.092,0.151l-1.08,0.261C57.982,54.865,57.973,54.866,57.963,54.866z"></path></g><g><path fill="#472b29" d="M55.722,65.738c-0.056,0-0.105-0.037-0.121-0.093c-0.018-0.067,0.022-0.135,0.089-0.153 c0.338-0.09,0.673-0.211,0.996-0.359c0.061-0.029,0.137-0.001,0.165,0.062c0.029,0.063,0.002,0.137-0.061,0.166 c-0.336,0.154-0.685,0.28-1.036,0.373C55.743,65.737,55.732,65.738,55.722,65.738z"></path></g><g><path fill="#472b29" d="M60.521,68.125H46c-0.069,0-0.125-0.056-0.125-0.125v-1.667c0-0.04,0.02-0.078,0.052-0.101 c1.027-0.749,2.645-1.849,4.512-2.84c0.034-0.017,0.074-0.019,0.106-0.005c0.035,0.014,0.062,0.043,0.072,0.08 c0.485,1.629,2.241,2.21,3.723,2.21c0.069,0,0.125,0.056,0.125,0.125s-0.056,0.125-0.125,0.125c-1.527,0-3.334-0.593-3.915-2.244 c-1.769,0.95-3.301,1.989-4.3,2.714v1.478h14.351c2.21-1.865,3.98-4.212,5.13-6.797c-1.065-0.379-2.932-0.808-5.946-0.823 c0.611,2.238-0.817,3.973-2.39,4.861c-0.062,0.035-0.137,0.012-0.17-0.047c-0.034-0.06-0.014-0.136,0.047-0.17 c1.524-0.861,2.91-2.556,2.227-4.731c-0.012-0.038-0.005-0.08,0.019-0.111c0.023-0.032,0.061-0.051,0.101-0.051 c3.272,0,5.246,0.481,6.325,0.885c0.032,0.012,0.058,0.037,0.071,0.068s0.013,0.067-0.001,0.099 c-1.168,2.682-2.996,5.116-5.286,7.04C60.579,68.115,60.551,68.125,60.521,68.125z"></path></g><g><path fill="#fcc938" d="M32.667,24h14.857v44.571h24.762L66.095,76H32.667l3.714-4.952V28.952L32.667,24z"></path><path fill="#472b29" d="M66.096,76.7H32.667c-0.266,0-0.508-0.15-0.626-0.387c-0.119-0.237-0.093-0.521,0.066-0.733 l3.573-4.766V29.186l-3.573-4.766c-0.159-0.212-0.186-0.496-0.066-0.733c0.118-0.237,0.36-0.387,0.626-0.387h14.856 c0.387,0,0.7,0.313,0.7,0.7v43.871h24.063c0.271,0,0.519,0.157,0.634,0.403s0.078,0.536-0.096,0.745l-6.19,7.429 C66.5,76.608,66.304,76.7,66.096,76.7z M34.067,75.3h31.7l5.024-6.028H47.523c-0.387,0-0.7-0.313-0.7-0.7V24.7H34.067l2.873,3.832 c0.092,0.121,0.141,0.269,0.141,0.42v42.096c0,0.151-0.049,0.299-0.141,0.42L34.067,75.3z"></path></g>
</svg>